<?xml version="1.0" encoding="utf-8" ?>
<svg xmlns="http://www.w3.org/2000/svg" xmlns:xlink="http://www.w3.org/1999/xlink" width="512" height="512">
	<path fill="#444344" d="M425.074 397.773C431.706 397.124 438.216 403.131 433.217 409.452C420.228 425.879 405.335 440.726 388.384 453.069C347.023 483.187 292.371 497.895 241.339 494.43L233.531 493.529C185.201 488.165 146.586 470.615 109.627 440.328C93.8815 427.77 107.991 421.3 113.24 424.392C115.549 425.752 117.565 427.993 119.633 429.713L131.206 438.625C165.332 463.017 204.839 477.972 246.836 480.017C306.454 482.921 366.039 459.839 407.412 416.593L415.539 407.537C418.226 404.384 421.128 399.953 424.743 397.953L425.074 397.773Z"/>
	<path fill="#444344" d="M251.913 13.3488C289.685 11.7832 325.354 22.1602 358.727 39.0051C383.029 51.2715 404.244 68.5835 422.496 88.6868C426.6 93.207 431.946 98.4416 433.875 104.304C432.934 108.122 429.619 112.691 425.027 111.576L424.75 111.502C421.019 110.617 418.342 105.956 416.004 103.25L404.419 90.6177C368.002 53.0889 314.402 28.9702 261.813 28.1365C257.034 28.1213 252.172 27.9836 247.404 28.2898L234.998 29.6558C187.583 35.4523 143.247 56.2826 109.866 90.5564L100.521 100.67C97.9572 103.667 95.3908 107.413 92.3182 109.873C87.6014 113.65 80.5799 110.188 80.3446 104.109C80.2007 100.392 83.9366 97.2583 86.1361 94.7179L97.4099 82.2391C137.109 40.8891 194.371 14.7249 251.913 13.3488Z"/>
	<path fill="#444344" d="M129.337 139.638C135.409 138.925 144.068 139.474 149.128 142.815L149.494 143.061C158.359 148.946 158.425 156.7 158.43 165.916L158.548 235.52L353.311 235.665L353.365 166.959C353.371 155.723 353.562 145.615 366.517 141.09L369 140.249C370.593 139.73 372.153 139.686 373.815 139.662C384.306 139.508 393.01 138.89 401.081 146.729C404.53 143.647 407.831 141.016 412.552 140.293C420.361 139.096 431.067 139.407 437.641 144.305L437.978 144.56C441.125 146.919 442.71 149.653 444.439 153.096C453.76 146.252 469.798 142.978 479.866 149.778L480.25 150.041C488.296 155.467 490.903 163.939 490.929 173.034L491.157 232.752C514.082 232.421 514.573 266.184 504.486 275.946C500.392 279.907 496.27 279.794 490.938 279.742L490.8 342.75C488.439 365.538 466.115 367.784 447.625 366.315C441.908 365.86 441.242 369.451 436.905 373.07L436.537 373.375C428.19 380.374 417.735 377.547 407.875 378.453C405.398 378.681 403.086 379.93 400.584 380.229C396.566 380.71 392.393 380.233 388.35 380.476C383.983 380.739 379.79 381.649 375.375 381.647L370.91 381.285L368.21 380.573C363.182 378.993 358.492 375.109 356.09 370.43L355.912 370.078C352.963 364.372 353.351 358.687 353.354 352.473L353.231 275.987L158.501 275.988C158.308 278.705 158.44 281.493 158.44 284.221L158.431 357.031C158.429 359.982 158.677 363.138 157.888 366.007L157.75 366.5C153.717 381.166 138.966 382.251 126.491 382.285L96.6089 382.289C79.4615 382.254 73.5216 377.949 66.2697 363.583C58.7982 365.645 51.543 367.827 43.7009 366.435C32.0028 364.359 23.4611 355.378 21.7006 343.722C21.2273 340.589 21.4714 337.169 21.4697 333.997L21.4565 295.78C21.4389 291.531 21.2154 287.187 21.5136 282.948L21.5435 282.547C20.4659 282.466 19.249 282.406 18.2005 282.134L16.8686 281.828C12.0143 280.654 6.69973 277.671 4.07106 273.343L3.875 273.014C1.22855 268.63 1.33152 262.892 1.32972 257.919C1.32601 247.621 2.15677 236.985 13.5828 233.32L14 233.189C16.5055 232.368 19.1096 232.532 21.7112 232.643L21.4544 180.313C21.457 177.063 21.3095 173.735 21.6326 170.499C22.7356 159.455 32.5144 150.245 43.3095 148.745C49.3411 147.907 61.7194 148.815 66.8941 152.818L67.1469 153.017C74.5289 141.377 86.414 138.83 99.5084 141.09C103.94 141.854 107.032 143.682 109.634 147.367C116.562 141.563 120.391 139.962 129.337 139.638Z"/>
</svg>
