<?xml version="1.0" encoding="utf-8" ?>
<svg xmlns="http://www.w3.org/2000/svg" xmlns:xlink="http://www.w3.org/1999/xlink" width="512" height="512">
	<path d="M139.752 351.121C135.752 355.814 121.609 353.436 116.513 351.504L116.214 351.389C106.15 367.629 80.4556 367.795 67.316 355.114C60.6186 348.65 58.8982 340.761 58.7273 331.759C47.9686 331.702 36.2848 325.932 32.5023 315.299C31.5736 312.688 31.4381 309.801 30.3824 307.263C27.492 300.313 24.6297 301.478 27.7091 291.25L29.5113 286.412C18.0854 279.091 6.03314 263.54 9.81134 249.354C11.6741 242.36 16.4861 234.161 23.0671 230.631L23.7224 230.305C26.9423 228.41 22.1263 219.147 31.3159 213.271L31.6336 213.069C30.5175 208.836 28.8816 203.847 29.6153 199.459L29.6752 199.125C31.6596 187.029 46.9775 179.518 58.136 180.133C58.9333 166.94 65.2332 147.921 80 144.817C94.6181 141.745 107.151 150.519 116.464 160.638C117.528 160.47 118.72 159.824 119.776 159.487C138.689 153.463 141.712 162.63 147.936 177.194C150.771 184.478 149.751 192.183 149.752 199.826L149.749 231.993C150.232 233.605 156.556 233.007 157.967 233.007L364.063 233.026L364.222 180.341C364.249 170.776 367.289 161.968 377.347 158.278L377.679 158.159C383.48 156.044 390.15 157.706 395.204 160.96L395.435 161.112C408.441 141.963 434.63 137.607 447.237 159.984C448.274 161.824 449.325 163.759 449.909 165.798L452.297 174.492C454.097 180.989 468.37 182.62 473.785 187.56C477.34 190.353 479.823 194.514 480.536 199L480.614 199.476C481.693 206.354 479.466 206.793 483.084 214.562L485.091 218.876C486.023 220.923 485.678 223.518 485.134 225.621C484.373 228.567 485.496 228.122 487.783 230.416C496.097 238.76 506.244 250.162 502.483 263L502.372 263.386C500.004 271.348 492.826 276.316 486.511 281.058L478.861 287.163C484.314 291.132 492.382 299.608 485.196 305.639C478.443 311.308 480.352 313.814 476.954 320.94C471.588 332.193 453.62 327.482 452.879 334.482L450.931 344.527C448.594 358.774 430.902 366.243 417.9 364.031C408.936 362.506 402.202 358.107 395.555 352.119C394.335 351.02 378.088 360.948 368.31 346.763C362.402 338.194 364.231 325.107 364.229 315.327L364.234 278.023L147.392 278.106C146.628 282.615 147.605 286.36 148.903 290.683L149.393 292.543C150.017 294.808 149.751 297.671 149.75 300.018L149.595 311.705L148.865 314.714C148.33 317.684 147.197 320.705 146.959 323.692C146.246 332.612 149.041 344.456 140.607 350.612L139.752 351.121ZM92.4983 157.618C79.9385 158.663 68.6482 164.75 68.065 178.517L68.0106 325.722C68.0299 338.615 71.6811 348.703 85.7537 352.46C107.498 354.923 109.755 338.551 109.761 321.201L109.762 210.707C109.758 195.801 113.84 159.477 92.4983 157.618ZM422.88 157.576C409.674 159.792 402.283 165.733 401.574 179.499L401.599 326.988C401.617 336.17 402.856 345.916 411.875 350.785L412.306 351.021C414.064 351.96 415.912 352.473 417.875 352.766L418.299 352.837C419.433 353.021 420.309 352.961 421.441 352.788C441.13 351.517 442.359 334.975 442.355 318.963L442.325 210.32C442.322 196.449 445.315 163.699 428.25 158.012L427.882 157.885C426.296 157.36 424.519 157.359 422.88 157.576ZM153.15 244.625C151.317 244.714 149.514 244.738 147.745 245.273C146.443 249.091 145.962 262.043 147.302 265.65C149.27 266.098 151.725 265.886 153.75 265.891L341.592 265.98C346.898 265.982 352.336 266.243 357.625 265.958L364.227 266.079L364.233 250.917C364.233 249.12 364.571 246.45 364.12 244.75L153.15 244.625ZM123.001 171.524C119.406 176.137 119.611 179.96 119.708 185.457L119.889 337.706C121.537 339.375 123.534 340.366 125.258 341.876C126.064 342.25 126.777 342.755 127.513 343.248C133.323 339.796 136.543 336.896 136.943 329.981C137.355 322.849 136.988 315.495 136.983 308.334L136.983 192.885C136.981 187.324 138.655 173.198 132.374 170.014L132.09 169.875C130.825 169.249 129.102 168.746 127.701 169.208L127.375 169.324C125.719 169.894 124.518 170.705 123.001 171.524ZM381.166 168.742C377.997 171.804 374.837 174.345 374.319 179.022L374.265 179.458C373.978 181.83 374.107 184.293 374.105 186.679L374.097 323.454C374.095 327.019 373.718 331.036 374.475 334.5L374.564 335.004C375.021 337.29 376.404 339.051 378.375 340.258L383.854 343.019L384.471 343.163C387.792 340.959 389.908 338.07 390.698 334.13L390.974 332.25C391.354 328.589 391.262 324.916 391.264 321.24L391.27 186.758C391.345 172.586 393.182 173.032 381.166 168.742ZM52.8871 192.055C47.7187 193.121 42.7503 195.857 42.5474 201.829L42.5332 308.292C42.5421 313.779 43.6385 315.949 48.8587 318.566C50.2769 319.218 52.9178 319.337 54.3554 318.727L55.3745 318.171C57.009 317.227 57.6763 315.495 58.0707 313.73L58.262 312.836C58.992 309.579 58.5205 305.269 58.52 301.899L58.5396 197.121C58.4595 193.481 56.672 191.852 52.8871 192.055ZM453.291 191.434L452.82 192.198C452.808 193.17 452.547 194.102 452.537 195.079L452.522 305.94C452.524 309.533 452.383 313.176 452.754 316.753C453.511 317.243 454.156 317.843 454.827 318.443C470.541 319.978 468.475 304.046 468.478 293.791L468.71 205.375C468.599 201.531 467.695 195.868 463.808 194.034L463.566 193.922C460.472 192.421 456.676 192.006 453.291 191.434ZM30.5625 241.125C26.2433 242.753 22.8592 245.599 20.9991 249.875L19.6874 254.042C19.0983 256.255 19.8321 258.925 20.814 260.957L20.9832 261.313C22.4958 264.434 24.8136 266.945 27.5263 269.068L33.2164 273.214L33.644 260.115C33.7433 256.389 35.4689 242.211 30.5625 241.125ZM479.138 240.631C478.003 245.276 477.201 261.623 478.481 266.625L478.54 266.88C479.737 271.871 485.065 267.603 487.069 265.657C495.713 255.244 490.584 245.047 479.138 240.631ZM125.258 341.876C123.534 340.366 121.537 339.375 119.889 337.706L119.708 185.457C119.611 179.96 119.406 176.137 123.001 171.524C121.923 171.968 121.471 172.396 120.875 173.377L120.634 173.729C120.175 174.418 119.981 174.975 119.753 175.751L119.607 176.172C119.013 178.02 117.758 188.946 118.877 190.625L118.751 191.001C118.637 191.398 118.627 191.71 118.627 192.125L118.636 194.375L118.429 192.438C118.124 193.793 118.319 195.474 118.319 196.886L118.33 253.125C118.302 257.452 118.273 261.755 118.299 266.083L118.338 312.13C118.342 319.526 118.114 326.988 118.729 334.36C119.011 337.744 118.115 338.327 122 340.548L123.268 341.25C124.207 341.775 124.07 341.933 125.258 341.876ZM452.725 316.753C452.383 313.176 452.524 309.533 452.522 305.94L452.537 195.079C452.547 194.102 452.808 193.17 452.82 192.198L453.291 191.434L452.365 191.958C452.481 192.94 451.766 198.632 451.754 200.709L451.641 259.461C451.564 263.282 451.561 266.44 451.576 270.33L451.572 288.553C451.788 290.819 451.864 293.425 451.843 295.69L451.788 311.125C451.819 312.807 452.212 314.446 452.193 316.125L452.725 316.753ZM139.752 351.121L140.607 350.612C149.041 344.456 146.246 332.612 146.959 323.692C147.197 320.705 148.33 317.684 148.865 314.714C147.604 315.92 146.741 319.55 146.377 321.375L146.198 322.137C146.104 322.542 146.139 322.844 146.189 323.25L145.824 323.125C145.321 328.439 145.919 337.028 145.172 340.875L145.205 341.599C143.405 345.513 144.437 347.157 139.848 350.569L139.752 351.121ZM473.785 187.56L474.04 188.534C474.558 188.97 474.919 189.574 475.438 190.034C481.532 195.443 478.145 201.703 479.411 207.932L479.945 208.671C480.944 210.507 481.118 213.492 483.084 214.562C479.466 206.793 481.693 206.354 480.614 199.476L480.536 199C479.823 194.514 477.34 190.353 473.785 187.56Z"/>
	<path d="M473.785 187.56C477.34 190.353 479.823 194.514 480.536 199L480.614 199.476C481.693 206.354 479.466 206.793 483.084 214.562C481.118 213.492 480.944 210.507 479.945 208.671L479.411 207.932C478.145 201.703 481.532 195.443 475.438 190.034C474.919 189.574 474.558 188.97 474.04 188.534L473.785 187.56Z"/>
	<path d="M139.752 351.121L139.848 350.569C144.437 347.157 143.405 345.513 145.205 341.599L145.172 340.875C145.919 337.028 145.321 328.439 145.824 323.125L146.189 323.25C146.139 322.844 146.104 322.542 146.198 322.137L146.377 321.375C146.741 319.55 147.604 315.92 148.865 314.714C148.33 317.684 147.197 320.705 146.959 323.692C146.246 332.612 149.041 344.456 140.607 350.612L139.752 351.121Z"/>
	<path fill="#4E4D4E" d="M149.595 311.705L148.169 315.281C147.278 311.011 146.059 292.999 148.903 290.683L149.393 292.543C150.017 294.808 149.751 297.671 149.75 300.018L149.595 311.705Z"/>
	<path d="M452.725 316.753L452.193 316.125C452.212 314.446 451.819 312.807 451.788 311.125L451.843 295.69C451.864 293.425 451.788 290.819 451.572 288.553L451.576 270.33C451.561 266.44 451.564 263.282 451.641 259.461L451.754 200.709C451.766 198.632 452.481 192.94 452.365 191.958L453.291 191.434L452.82 192.198C452.808 193.17 452.547 194.102 452.537 195.079L452.522 305.94C452.524 309.533 452.383 313.176 452.725 316.753Z"/>
	<path fill="#4E4D4E" d="M147.691 177.194C150.771 184.478 149.751 192.183 149.752 199.826L149.749 231.993L149.132 231.907C147.199 230.372 147.443 227.705 147.374 225.443L147.348 182.924C147.329 181.121 146.816 178.847 147.691 177.194Z"/>
	<path d="M125.258 341.876C124.07 341.933 124.207 341.775 123.268 341.25L122 340.548C118.115 338.327 119.011 337.744 118.729 334.36C118.114 326.988 118.342 319.526 118.338 312.13L118.299 266.083C118.273 261.755 118.302 257.452 118.33 253.125L118.319 196.886C118.319 195.474 118.124 193.793 118.429 192.438L118.636 194.375L118.627 192.125C118.627 191.71 118.637 191.398 118.751 191.001L118.877 190.625C117.758 188.946 119.013 178.02 119.607 176.172L119.753 175.751C119.981 174.975 120.175 174.418 120.634 173.729L120.875 173.377C121.471 172.396 121.923 171.968 123.001 171.524C119.406 176.137 119.611 179.96 119.708 185.457L119.889 337.706C121.537 339.375 123.534 340.366 125.258 341.876Z"/>
</svg>
